<svg width="142" height="81" viewBox="0 0 142 81" fill="none" xmlns="http://www.w3.org/2000/svg">
<path fill-rule="evenodd" clip-rule="evenodd" d="M71.1118 3.8147e-06C84.4284 3.8147e-06 95.2234 10.7953 95.2234 24.1118C95.2234 35.21 87.7243 44.5553 77.5174 47.3614V57.4436C77.5174 60.9667 74.6349 63.8495 71.1118 63.8495C67.5884 63.8495 64.706 60.967 64.706 57.4436V47.3614C54.499 44.5553 47 35.21 47 24.1118C47 10.7953 57.7953 3.8147e-06 71.1118 3.8147e-06ZM71.1118 6.76574C80.6917 6.76574 88.4576 14.5317 88.4576 24.1118C88.4576 33.6917 80.6917 41.4576 71.1118 41.4576C61.5317 41.4576 53.766 33.6917 53.766 24.1118C53.766 14.5317 61.5317 6.76574 71.1118 6.76574Z" fill="#1b64ac"/>
<path fill-rule="evenodd" clip-rule="evenodd" d="M71.195 29.4531L66.9044 33.7437C65.717 32.5563 61.6345 28.46 57.4231 24.2402C57.4 21.8617 57.9981 19.5079 59.164 17.4225L71.195 29.4531Z" fill="#1b64ac"/>
<path fill-rule="evenodd" clip-rule="evenodd" d="M93.5234 5.92222L66.3031 33.1425L70.5937 37.433L98.4088 9.61771C97.4421 7.79582 96.2929 6.06999 94.9768 4.46883L93.5234 5.92222Z" fill="#1b64ac"/>
<path fill-rule="evenodd" clip-rule="evenodd" d="M70.5937 12.401C73.4894 12.401 75.8368 14.7484 75.8368 17.6441C75.8368 20.5398 73.4894 22.8872 70.5937 22.8872C67.698 22.8872 65.3506 20.5398 65.3506 17.6441C65.3506 14.7484 67.698 12.401 70.5937 12.401Z" fill="#1b64ac"/>
<path d="M12.555 68.1V78H10.275V73.455L10.35 70.41H10.32L7.875 78H5.79L3.345 70.41H3.315L3.39 73.455V78H1.095V68.1H4.77L6.33 73.14L6.885 75.24H6.915L7.485 73.155L9.03 68.1H12.555ZM17.9584 78.15C17.4484 78.15 16.9984 78.065 16.6084 77.895C16.2284 77.715 15.9284 77.43 15.7084 77.04C15.4884 76.65 15.3784 76.14 15.3784 75.51V70.5H17.9284V74.91C17.9284 75.39 18.0234 75.725 18.2134 75.915C18.4034 76.105 18.6734 76.2 19.0234 76.2C19.2034 76.2 19.3734 76.17 19.5334 76.11C19.6934 76.04 19.8334 75.94 19.9534 75.81C20.0734 75.67 20.1634 75.495 20.2234 75.285C20.2934 75.065 20.3284 74.81 20.3284 74.52V70.5H22.8784V78H20.5984L20.5234 76.59C20.2834 77.12 19.9484 77.515 19.5184 77.775C19.0884 78.025 18.5684 78.15 17.9584 78.15ZM28.1305 67.32V75.45C28.1305 75.78 28.1855 76.015 28.2955 76.155C28.4055 76.295 28.5905 76.365 28.8505 76.365C29.0005 76.365 29.1255 76.355 29.2255 76.335C29.3255 76.315 29.4455 76.285 29.5855 76.245L29.4205 77.775C29.2405 77.885 29.0055 77.975 28.7155 78.045C28.4255 78.115 28.1405 78.15 27.8605 78.15C27.0605 78.15 26.4805 77.965 26.1205 77.595C25.7605 77.225 25.5805 76.62 25.5805 75.78V67.32H28.1305ZM31.4177 78V67.32H33.9677V71.865C34.1877 71.365 34.5027 70.99 34.9127 70.74C35.3227 70.48 35.7977 70.35 36.3377 70.35C36.8577 70.35 37.3077 70.45 37.6877 70.65C38.0777 70.85 38.3827 71.145 38.6027 71.535C38.8227 71.925 38.9327 72.415 38.9327 73.005V78H36.3827V73.71C36.3827 73.17 36.2827 72.8 36.0827 72.6C35.8927 72.39 35.6377 72.285 35.3177 72.285C35.0777 72.285 34.8527 72.345 34.6427 72.465C34.4327 72.585 34.2677 72.775 34.1477 73.035C34.0277 73.295 33.9677 73.635 33.9677 74.055V78H31.4177ZM45.1895 70.35C45.9795 70.35 46.6695 70.505 47.2595 70.815C47.8595 71.115 48.3245 71.56 48.6545 72.15C48.9945 72.73 49.1645 73.43 49.1645 74.25C49.1645 75.07 48.9945 75.775 48.6545 76.365C48.3245 76.945 47.8595 77.39 47.2595 77.7C46.6695 78 45.9795 78.15 45.1895 78.15C44.4195 78.15 43.7345 78 43.1345 77.7C42.5345 77.39 42.0645 76.945 41.7245 76.365C41.3945 75.775 41.2295 75.07 41.2295 74.25C41.2295 73.43 41.3945 72.73 41.7245 72.15C42.0645 71.56 42.5345 71.115 43.1345 70.815C43.7345 70.505 44.4195 70.35 45.1895 70.35ZM45.1895 72.165C44.8995 72.165 44.6495 72.235 44.4395 72.375C44.2295 72.515 44.0695 72.74 43.9595 73.05C43.8495 73.36 43.7945 73.76 43.7945 74.25C43.7945 74.74 43.8495 75.14 43.9595 75.45C44.0695 75.75 44.2295 75.975 44.4395 76.125C44.6495 76.265 44.8995 76.335 45.1895 76.335C45.4895 76.335 45.7445 76.265 45.9545 76.125C46.1645 75.975 46.3245 75.75 46.4345 75.45C46.5445 75.14 46.5995 74.74 46.5995 74.25C46.5995 73.76 46.5445 73.36 46.4345 73.05C46.3245 72.74 46.1645 72.515 45.9545 72.375C45.7445 72.235 45.4895 72.165 45.1895 72.165ZM54.034 78.15C53.524 78.15 53.074 78.065 52.684 77.895C52.304 77.715 52.004 77.43 51.784 77.04C51.564 76.65 51.454 76.14 51.454 75.51V70.5H54.004V74.91C54.004 75.39 54.099 75.725 54.289 75.915C54.479 76.105 54.749 76.2 55.099 76.2C55.279 76.2 55.449 76.17 55.609 76.11C55.769 76.04 55.909 75.94 56.029 75.81C56.149 75.67 56.239 75.495 56.299 75.285C56.369 75.065 56.404 74.81 56.404 74.52V70.5H58.954V78H56.674L56.599 76.59C56.359 77.12 56.024 77.515 55.594 77.775C55.164 78.025 54.644 78.15 54.034 78.15ZM64.8361 78.15C64.0861 78.15 63.3861 78.03 62.7361 77.79C62.0961 77.54 61.5661 77.185 61.1461 76.725L62.3461 75.315C62.5961 75.635 62.9261 75.905 63.3361 76.125C63.7561 76.335 64.2211 76.44 64.7311 76.44C65.0411 76.44 65.2961 76.395 65.4961 76.305C65.6961 76.215 65.7961 76.075 65.7961 75.885C65.7961 75.745 65.7461 75.635 65.6461 75.555C65.5461 75.465 65.3461 75.39 65.0461 75.33L63.9961 75.12C63.0561 74.93 62.3861 74.65 61.9861 74.28C61.5961 73.9 61.4011 73.405 61.4011 72.795C61.4011 72.385 61.5261 71.995 61.7761 71.625C62.0261 71.245 62.4111 70.94 62.9311 70.71C63.4511 70.47 64.1161 70.35 64.9261 70.35C65.6861 70.35 66.3561 70.46 66.9361 70.68C67.5161 70.9 67.9761 71.22 68.3161 71.64L67.1011 73.02C66.8611 72.72 66.5511 72.485 66.1711 72.315C65.7911 72.145 65.4111 72.06 65.0311 72.06C64.7911 72.06 64.5861 72.085 64.4161 72.135C64.2561 72.175 64.1361 72.235 64.0561 72.315C63.9761 72.395 63.9361 72.495 63.9361 72.615C63.9361 72.745 63.9961 72.86 64.1161 72.96C64.2461 73.05 64.4811 73.13 64.8211 73.2L66.1861 73.47C66.9561 73.61 67.5111 73.865 67.8511 74.235C68.1911 74.605 68.3611 75.05 68.3611 75.57C68.3611 76.06 68.2311 76.5 67.9711 76.89C67.7111 77.28 67.3211 77.59 66.8011 77.82C66.2811 78.04 65.6261 78.15 64.8361 78.15ZM74.2002 78.15C73.3702 78.15 72.6502 77.995 72.0402 77.685C71.4402 77.375 70.9752 76.93 70.6452 76.35C70.3152 75.77 70.1502 75.07 70.1502 74.25C70.1502 73.43 70.3152 72.73 70.6452 72.15C70.9752 71.57 71.4352 71.125 72.0252 70.815C72.6252 70.505 73.3102 70.35 74.0802 70.35C74.8702 70.35 75.5402 70.505 76.0902 70.815C76.6502 71.115 77.0752 71.535 77.3652 72.075C77.6552 72.605 77.8002 73.215 77.8002 73.905C77.8002 74.085 77.7952 74.265 77.7852 74.445C77.7752 74.625 77.7602 74.775 77.7402 74.895H71.8002V73.53H76.6152L75.4002 73.995C75.4002 73.395 75.2902 72.935 75.0702 72.615C74.8602 72.295 74.5302 72.135 74.0802 72.135C73.7602 72.135 73.4852 72.21 73.2552 72.36C73.0352 72.51 72.8652 72.745 72.7452 73.065C72.6352 73.385 72.5802 73.795 72.5802 74.295C72.5802 74.785 72.6452 75.185 72.7752 75.495C72.9052 75.795 73.0902 76.015 73.3302 76.155C73.5702 76.285 73.8602 76.35 74.2002 76.35C74.5802 76.35 74.8802 76.275 75.1002 76.125C75.3302 75.975 75.5002 75.765 75.6102 75.495L77.6502 76.17C77.5102 76.6 77.2652 76.965 76.9152 77.265C76.5752 77.555 76.1652 77.775 75.6852 77.925C75.2152 78.075 74.7202 78.15 74.2002 78.15ZM93.56 68.1V70.095H90.335V78H87.755V70.095H84.515V68.1H93.56ZM94.8027 78V70.5H97.0527L97.1577 72.12C97.3477 71.56 97.6277 71.125 97.9977 70.815C98.3777 70.505 98.8577 70.35 99.4377 70.35C99.6277 70.35 99.7877 70.365 99.9177 70.395C100.058 70.425 100.168 70.465 100.248 70.515L99.9927 72.615C99.8927 72.575 99.7627 72.545 99.6027 72.525C99.4527 72.495 99.2677 72.48 99.0477 72.48C98.7477 72.48 98.4677 72.545 98.2077 72.675C97.9477 72.805 97.7377 73 97.5777 73.26C97.4277 73.51 97.3527 73.83 97.3527 74.22V78H94.8027ZM106.26 73.245C106.26 72.895 106.16 72.62 105.96 72.42C105.77 72.21 105.51 72.105 105.18 72.105C104.85 72.105 104.565 72.19 104.325 72.36C104.095 72.52 103.935 72.81 103.845 73.23L101.685 72.72C101.825 72 102.195 71.425 102.795 70.995C103.395 70.565 104.24 70.35 105.33 70.35C106.06 70.35 106.68 70.46 107.19 70.68C107.71 70.89 108.105 71.21 108.375 71.64C108.655 72.06 108.795 72.58 108.795 73.2V75.945C108.795 76.335 108.97 76.53 109.32 76.53C109.5 76.53 109.645 76.51 109.755 76.47L109.605 77.925C109.305 78.065 108.94 78.135 108.51 78.135C108.12 78.135 107.775 78.075 107.475 77.955C107.175 77.825 106.94 77.635 106.77 77.385C106.6 77.125 106.515 76.8 106.515 76.41V76.32L106.8 76.215C106.8 76.645 106.67 77.005 106.41 77.295C106.16 77.585 105.83 77.8 105.42 77.94C105.02 78.08 104.6 78.15 104.16 78.15C103.65 78.15 103.205 78.07 102.825 77.91C102.445 77.75 102.15 77.52 101.94 77.22C101.74 76.91 101.64 76.53 101.64 76.08C101.64 75.54 101.8 75.095 102.12 74.745C102.45 74.385 102.965 74.135 103.665 73.995L106.5 73.41L106.485 74.76L105.045 75.06C104.745 75.12 104.52 75.21 104.37 75.33C104.23 75.44 104.16 75.61 104.16 75.84C104.16 76.06 104.24 76.225 104.4 76.335C104.56 76.445 104.75 76.5 104.97 76.5C105.14 76.5 105.3 76.475 105.45 76.425C105.61 76.375 105.75 76.3 105.87 76.2C105.99 76.09 106.085 75.955 106.155 75.795C106.225 75.635 106.26 75.445 106.26 75.225V73.245ZM116.214 70.5H118.854L116.154 78H113.109L110.409 70.5H113.094L114.639 76.215L116.214 70.5ZM124.671 73.245C124.671 72.895 124.571 72.62 124.371 72.42C124.181 72.21 123.921 72.105 123.591 72.105C123.261 72.105 122.976 72.19 122.736 72.36C122.506 72.52 122.346 72.81 122.256 73.23L120.096 72.72C120.236 72 120.606 71.425 121.206 70.995C121.806 70.565 122.651 70.35 123.741 70.35C124.471 70.35 125.091 70.46 125.601 70.68C126.121 70.89 126.516 71.21 126.786 71.64C127.066 72.06 127.206 72.58 127.206 73.2V75.945C127.206 76.335 127.381 76.53 127.731 76.53C127.911 76.53 128.056 76.51 128.166 76.47L128.016 77.925C127.716 78.065 127.351 78.135 126.921 78.135C126.531 78.135 126.186 78.075 125.886 77.955C125.586 77.825 125.351 77.635 125.181 77.385C125.011 77.125 124.926 76.8 124.926 76.41V76.32L125.211 76.215C125.211 76.645 125.081 77.005 124.821 77.295C124.571 77.585 124.241 77.8 123.831 77.94C123.431 78.08 123.011 78.15 122.571 78.15C122.061 78.15 121.616 78.07 121.236 77.91C120.856 77.75 120.561 77.52 120.351 77.22C120.151 76.91 120.051 76.53 120.051 76.08C120.051 75.54 120.211 75.095 120.531 74.745C120.861 74.385 121.376 74.135 122.076 73.995L124.911 73.41L124.896 74.76L123.456 75.06C123.156 75.12 122.931 75.21 122.781 75.33C122.641 75.44 122.571 75.61 122.571 75.84C122.571 76.06 122.651 76.225 122.811 76.335C122.971 76.445 123.161 76.5 123.381 76.5C123.551 76.5 123.711 76.475 123.861 76.425C124.021 76.375 124.161 76.3 124.281 76.2C124.401 76.09 124.496 75.955 124.566 75.795C124.636 75.635 124.671 75.445 124.671 75.225V73.245ZM131.348 69.63C130.828 69.63 130.448 69.535 130.208 69.345C129.978 69.145 129.863 68.835 129.863 68.415C129.863 67.985 129.978 67.675 130.208 67.485C130.448 67.285 130.828 67.185 131.348 67.185C131.858 67.185 132.233 67.285 132.473 67.485C132.713 67.675 132.833 67.985 132.833 68.415C132.833 68.835 132.713 69.145 132.473 69.345C132.233 69.535 131.858 69.63 131.348 69.63ZM132.623 70.5V78H130.073V70.5H132.623ZM137.858 67.32V75.45C137.858 75.78 137.913 76.015 138.023 76.155C138.133 76.295 138.318 76.365 138.578 76.365C138.728 76.365 138.853 76.355 138.953 76.335C139.053 76.315 139.173 76.285 139.313 76.245L139.148 77.775C138.968 77.885 138.733 77.975 138.443 78.045C138.153 78.115 137.868 78.15 137.588 78.15C136.788 78.15 136.208 77.965 135.848 77.595C135.488 77.225 135.308 76.62 135.308 75.78V67.32H137.858Z" fill="#1b64ac"/>
</svg>
