<svg width="94" height="32" viewBox="0 0 94 32" fill="none" xmlns="http://www.w3.org/2000/svg">
<g clip-path="url(#clip0_7_2)">
<g clip-path="url(#clip1_7_2)">
<g clip-path="url(#clip2_7_2)">
<g clip-path="url(#clip3_7_2)">
<g clip-path="url(#clip4_7_2)">
<g clip-path="url(#clip5_7_2)">
<path d="M1.74575 20.1966L5.2074 24.3966L8.37337 20.631V20.1966H9.8657V30.6392H8.37337V21.7069L4.79736 25.9616L1.24366 21.6925V30.6392H0.549103V20.8553L0.00238037 20.1966H1.74575ZM15.8099 30.6392V30.0926C15.5142 30.223 15.2437 30.3313 14.9982 30.4176C14.7527 30.504 14.5249 30.573 14.3148 30.6248C14.1028 30.6766 13.9038 30.713 13.7179 30.7341C13.5319 30.7552 13.3552 30.7657 13.1879 30.7657C12.7602 30.7657 12.4338 30.6526 12.2088 30.4263C11.9856 30.1981 11.8741 29.8289 11.8741 29.3187V24.0226H13.2548V29.1001C13.2548 29.2075 13.265 29.3139 13.2855 29.4194C13.306 29.5249 13.3422 29.6198 13.3943 29.7042C13.4464 29.7886 13.5179 29.8576 13.6091 29.9113C13.7002 29.965 13.8183 29.9919 13.9633 29.9919C14.1958 29.9919 14.4645 29.9631 14.7695 29.9056C15.0763 29.8461 15.4231 29.7253 15.8099 29.5431V24.0226H17.1851V30.6392H15.8099ZM19.0093 30.6392V20.1966H20.3929V30.6392H19.0093ZM23.5923 20.1966V24.5721C23.8824 24.4398 24.1502 24.3305 24.3957 24.2441C24.6411 24.1578 24.8699 24.0878 25.0819 24.0341C25.2957 23.9804 25.4947 23.943 25.6788 23.922C25.8629 23.9009 26.0414 23.8903 26.2144 23.8903C26.6402 23.8903 26.9656 24.0044 27.1907 24.2326C27.4157 24.4628 27.5282 24.8329 27.5282 25.3431V30.6392H26.1446V25.5617C26.1446 25.4581 26.1344 25.3527 26.1139 25.2453C26.0935 25.1379 26.0572 25.042 26.0052 24.9576C25.9531 24.8732 25.8806 24.8042 25.7876 24.7505C25.6946 24.6968 25.5775 24.6699 25.4361 24.6699C25.2055 24.6699 24.9368 24.6987 24.63 24.7562C24.3231 24.8157 23.9773 24.9365 23.5923 25.1187V30.6392H22.2172V20.1966H23.5923ZM32.192 23.8903C32.6588 23.8903 33.0967 23.9804 33.5059 24.1607C33.915 24.341 34.2701 24.5865 34.5714 24.8972C34.8745 25.2098 35.1116 25.5751 35.2827 25.9932C35.4556 26.4132 35.5421 26.8591 35.5421 27.3309C35.5421 27.8084 35.4556 28.2572 35.2827 28.6772C35.1116 29.0953 34.8745 29.4597 34.5714 29.7704C34.2701 30.083 33.915 30.3294 33.5059 30.5097C33.0967 30.69 32.6588 30.7801 32.192 30.7801C31.7327 30.7801 31.3022 30.69 30.9006 30.5097C30.4989 30.3294 30.1483 30.083 29.8489 29.7704C29.5496 29.4597 29.3125 29.0953 29.1377 28.6772C28.9629 28.2572 28.8754 27.8084 28.8754 27.3309C28.8754 26.8591 28.9629 26.4132 29.1377 25.9932C29.3125 25.5751 29.5496 25.2098 29.8489 24.8972C30.1483 24.5865 30.4989 24.341 30.9006 24.1607C31.3022 23.9804 31.7327 23.8903 32.192 23.8903ZM32.1781 24.5289C31.8248 24.5289 31.5263 24.5989 31.2827 24.7389C31.0391 24.879 30.8429 25.0755 30.6941 25.3287C30.5435 25.5818 30.4357 25.882 30.3706 26.2291C30.3036 26.5743 30.2701 26.9512 30.2701 27.3597C30.2701 27.7624 30.3046 28.1345 30.3734 28.4758C30.4422 28.8172 30.5509 29.1135 30.6997 29.3648C30.8503 29.6141 31.0465 29.8097 31.2883 29.9516C31.5319 30.0916 31.8285 30.1616 32.1781 30.1616C32.5277 30.1616 32.8252 30.0916 33.0707 29.9516C33.3162 29.8097 33.517 29.6141 33.6732 29.3648C33.8294 29.1135 33.9429 28.8172 34.0135 28.4758C34.0842 28.1345 34.1195 27.7624 34.1195 27.3597C34.1195 26.9512 34.0842 26.5743 34.0135 26.2291C33.9429 25.882 33.8294 25.5818 33.6732 25.3287C33.517 25.0755 33.3162 24.879 33.0707 24.7389C32.8252 24.5989 32.5277 24.5289 32.1781 24.5289ZM40.8197 30.6392V30.0926C40.524 30.223 40.2534 30.3313 40.0079 30.4176C39.7643 30.504 39.5365 30.573 39.3245 30.6248C39.1144 30.6766 38.9154 30.713 38.7276 30.7341C38.5416 30.7552 38.365 30.7657 38.1976 30.7657C37.7718 30.7657 37.4463 30.6526 37.2213 30.4263C36.9963 30.1981 36.8838 29.8289 36.8838 29.3187V24.0226H38.2646V29.1001C38.2646 29.2075 38.2748 29.3139 38.2952 29.4194C38.3157 29.5249 38.352 29.6198 38.404 29.7042C38.458 29.7886 38.5296 29.8576 38.6188 29.9113C38.7099 29.965 38.828 29.9919 38.9731 29.9919C39.2055 29.9919 39.4752 29.9631 39.782 29.9056C40.087 29.8461 40.4329 29.7253 40.8197 29.5431V24.0226H42.1948V30.6392H40.8197ZM45.7095 23.8903C45.8992 23.8903 46.0647 23.898 46.206 23.9133C46.3473 23.9306 46.4803 23.9555 46.6049 23.9881C46.7295 24.0207 46.8531 24.0581 46.9759 24.1003C47.0986 24.1425 47.2343 24.1895 47.3831 24.2413L47.3692 24.8598C47.1572 24.7792 46.9312 24.7083 46.6913 24.6469C46.4533 24.5874 46.1734 24.5577 45.8517 24.5577C45.7829 24.5577 45.7011 24.5673 45.6063 24.5865C45.5114 24.6037 45.4203 24.6344 45.3329 24.6785C45.2474 24.7246 45.1748 24.785 45.1153 24.8598C45.0577 24.9346 45.0289 25.0257 45.0289 25.1331C45.0289 25.2539 45.0819 25.4016 45.1879 25.5761C45.2939 25.7487 45.4631 25.9635 45.6955 26.2205L46.4236 27.072C46.5779 27.2542 46.7313 27.4306 46.8838 27.6013C47.0363 27.772 47.1711 27.9398 47.2883 28.1047C47.4073 28.2678 47.504 28.4298 47.5784 28.5909C47.6528 28.7539 47.6899 28.915 47.6899 29.0742C47.6899 29.383 47.6221 29.6448 47.4863 29.8596C47.3506 30.0744 47.173 30.2508 46.9535 30.3889C46.736 30.527 46.4905 30.6267 46.2171 30.6881C45.9419 30.7494 45.6658 30.7801 45.3887 30.7801C45.0019 30.7801 44.6597 30.737 44.3622 30.6507C44.0665 30.5624 43.7866 30.4387 43.5226 30.2796L43.5756 29.6496C43.7857 29.7608 44.0135 29.8644 44.259 29.9602C44.5026 30.0561 44.7546 30.1041 45.0149 30.1041C45.4408 30.1041 45.7606 30.0274 45.9745 29.8739C46.1883 29.7186 46.2952 29.4942 46.2952 29.2008C46.2952 28.9937 46.2125 28.7779 46.047 28.5535C45.8796 28.3291 45.6741 28.0808 45.4305 27.8084L44.7081 26.9742C44.5165 26.7249 44.3538 26.5158 44.2199 26.3471C44.086 26.1783 43.9782 26.0287 43.8964 25.8983C43.8145 25.7679 43.755 25.6442 43.7178 25.5272C43.6788 25.4102 43.6593 25.2788 43.6593 25.1331C43.6593 24.8933 43.7123 24.6939 43.8183 24.5347C43.9261 24.3755 44.0712 24.248 44.2534 24.1521C44.4375 24.0562 44.6551 23.9891 44.9061 23.9507C45.1553 23.9104 45.4231 23.8903 45.7095 23.8903ZM51.6118 23.8903C52.0749 23.8903 52.4663 23.9776 52.7862 24.1521C53.106 24.3285 53.3673 24.5663 53.57 24.8655C53.7727 25.1647 53.9177 25.5099 54.0051 25.9012C54.0944 26.2924 54.139 26.7057 54.139 27.141V27.4719H49.9438C49.9438 27.7346 49.9847 28.0175 50.0665 28.3205C50.1483 28.6254 50.2813 28.9064 50.4654 29.1634C50.6495 29.4223 50.8875 29.6371 51.1795 29.8078C51.4733 29.9785 51.8331 30.0638 52.259 30.0638H53.676V30.6392H52.2395C51.6035 30.6392 51.0549 30.5644 50.5937 30.4148C50.1325 30.2652 49.7532 30.0475 49.4556 29.7618C49.1581 29.476 48.9396 29.1269 48.8001 28.7146C48.6588 28.3023 48.5881 27.8315 48.5881 27.3021C48.5881 26.8629 48.6551 26.4372 48.789 26.0249C48.9229 25.6125 49.1181 25.2481 49.3747 24.9317C49.6314 24.6172 49.9466 24.365 50.3203 24.1751C50.696 23.9852 51.1265 23.8903 51.6118 23.8903ZM51.5449 24.5289C51.2622 24.5289 51.0214 24.5942 50.8224 24.7246C50.6216 24.8569 50.457 25.0314 50.3287 25.2481C50.1985 25.4668 50.1028 25.7199 50.0414 26.0076C49.98 26.2953 49.9475 26.5935 49.9438 26.9023H52.8252V26.6002C52.8159 26.3298 52.7918 26.0699 52.7527 25.8206C52.7137 25.5732 52.6467 25.3536 52.5519 25.1618C52.457 24.97 52.3287 24.8166 52.1669 24.7016C52.0051 24.5865 51.7978 24.5289 51.5449 24.5289ZM58.1753 20.1966H64.5909V20.8841H62.139V30.6392H60.6467V20.8841H58.1753V20.1966ZM66.047 24.0226V24.5433C66.2292 24.411 66.3891 24.3036 66.5268 24.2211C66.6662 24.1367 66.7899 24.0696 66.8977 24.0198C67.0075 23.9699 67.1088 23.9363 67.2018 23.9191C67.2948 23.8999 67.3868 23.8903 67.4779 23.8903C67.8313 23.8903 68.0944 24.0169 68.2673 24.27C68.4403 24.5213 68.5426 24.879 68.5742 25.3431L67.3831 25.7084C67.3366 25.3709 67.2752 25.1321 67.199 24.9921C67.1209 24.8521 67 24.7821 66.8364 24.7821C66.7415 24.7821 66.629 24.8032 66.4989 24.8454C66.3706 24.8876 66.2199 24.9576 66.047 25.0554V30.6392H64.6662V24.0226H66.047ZM71.6118 24.5002C71.3924 24.5002 71.2027 24.5078 71.0428 24.5232C70.881 24.5366 70.7341 24.5548 70.6021 24.5779C70.47 24.6009 70.3473 24.6277 70.2339 24.6584C70.1204 24.6891 70.007 24.7207 69.8936 24.7533L69.7318 24.2959C70.113 24.1521 70.5109 24.0485 70.9256 23.9852C71.3422 23.922 71.7364 23.8903 72.1083 23.8903C72.5844 23.8903 72.9758 23.9162 73.2827 23.968C73.5895 24.0198 73.8285 24.1051 73.9996 24.224C74.1725 24.3429 74.2924 24.5021 74.3594 24.7016C74.4245 24.901 74.457 25.1503 74.457 25.4495V30.6392H72.2227C71.6146 30.6392 71.0958 30.574 70.6662 30.4435C70.2385 30.3112 69.888 30.1338 69.6146 29.9113C69.3431 29.6889 69.1432 29.4338 69.0149 29.1461C68.8884 28.8585 68.8252 28.5554 68.8252 28.2371C68.8252 27.8439 68.8857 27.4978 69.0065 27.1986C69.1255 26.8975 69.2985 26.6453 69.5254 26.442C69.7541 26.2387 70.0312 26.0843 70.3566 25.9788C70.6839 25.8733 71.0567 25.8206 71.4751 25.8206C71.702 25.8206 71.9596 25.8609 72.2478 25.9414C72.5361 26.0201 72.8113 26.139 73.0735 26.2981V25.4207C73.0735 25.3133 73.0623 25.205 73.04 25.0957C73.0177 24.9844 72.9591 24.8857 72.8643 24.7994C72.7676 24.7131 72.6207 24.6421 72.4235 24.5865C72.2264 24.5289 71.9559 24.5002 71.6118 24.5002ZM72.1697 30.0638H73.0735V26.8102C72.8559 26.676 72.629 26.5753 72.3929 26.5081C72.1567 26.4429 71.8964 26.4103 71.6118 26.4103C71.3831 26.4103 71.1813 26.4525 71.0065 26.5369C70.8317 26.6213 70.6858 26.7412 70.5686 26.8965C70.4514 27.0499 70.3622 27.235 70.3008 27.4517C70.2394 27.6665 70.2088 27.9053 70.2088 28.168C70.2088 28.2428 70.2116 28.3406 70.2171 28.4615C70.2246 28.5842 70.2478 28.7156 70.2869 28.8556C70.3241 28.9956 70.3826 29.1375 70.4626 29.2813C70.5426 29.4233 70.6551 29.5527 70.8001 29.6697C70.9452 29.7867 71.1293 29.8816 71.3524 29.9545C71.5737 30.0274 71.8461 30.0638 72.1697 30.0638ZM76.7862 24.0226L79.0456 29.1145L80.934 24.0226H81.5867L79.4082 29.9228L79.7262 30.6392H78.2897L75.3357 24.0226H76.7862ZM84.7387 24.5002C84.5212 24.5002 84.3315 24.5078 84.1697 24.5232C84.0098 24.5366 83.8638 24.5548 83.7318 24.5779C83.5997 24.6009 83.477 24.6277 83.3636 24.6584C83.2501 24.6891 83.1367 24.7207 83.0233 24.7533L82.8587 24.2959C83.2399 24.1521 83.6388 24.0485 84.0553 23.9852C84.47 23.922 84.8633 23.8903 85.2353 23.8903C85.7132 23.8903 86.1046 23.9162 86.4096 23.968C86.7164 24.0198 86.9563 24.1051 87.1293 24.224C87.3022 24.3429 87.4212 24.5021 87.4863 24.7016C87.5532 24.901 87.5867 25.1503 87.5867 25.4495V30.6392H85.3524C84.7443 30.6392 84.2255 30.574 83.7959 30.4435C83.3664 30.3112 83.0158 30.1338 82.7443 29.9113C82.471 29.6889 82.2711 29.4338 82.1446 29.1461C82.0181 28.8585 81.9549 28.5554 81.9549 28.2371C81.9549 27.8439 82.0144 27.4978 82.1334 27.1986C82.2543 26.8975 82.4282 26.6453 82.6551 26.442C82.8819 26.2387 83.159 26.0843 83.4863 25.9788C83.8136 25.8733 84.1855 25.8206 84.6021 25.8206C84.8289 25.8206 85.0865 25.8609 85.3747 25.9414C85.663 26.0201 85.9391 26.139 86.2032 26.2981V25.4207C86.2032 25.3133 86.192 25.205 86.1697 25.0957C86.1474 24.9844 86.0879 24.8857 85.9912 24.7994C85.8963 24.7131 85.7504 24.6421 85.5532 24.5865C85.3561 24.5289 85.0846 24.5002 84.7387 24.5002ZM85.2966 30.0638H86.2032V26.8102C85.9856 26.676 85.7587 26.5753 85.5226 26.5081C85.2864 26.4429 85.0251 26.4103 84.7387 26.4103C84.5119 26.4103 84.311 26.4525 84.1362 26.5369C83.9614 26.6213 83.8154 26.7412 83.6983 26.8965C83.5793 27.0499 83.4891 27.235 83.4277 27.4517C83.3664 27.6665 83.3357 27.9053 83.3357 28.168C83.3357 28.2428 83.3394 28.3406 83.3468 28.4615C83.3524 28.5842 83.3747 28.7156 83.4138 28.8556C83.4528 28.9956 83.5123 29.1375 83.5923 29.2813C83.6704 29.4233 83.7829 29.5527 83.9298 29.6697C84.0749 29.7867 84.258 29.8816 84.4793 29.9545C84.7025 30.0274 84.9749 30.0638 85.2966 30.0638ZM90.7527 24.0226V30.6392H89.3691V24.0226H90.7527ZM90.7527 22.078V22.9122H89.3691V22.078H90.7527ZM92.5769 30.6392V20.1966H93.9577V30.6392H92.5769Z" fill="#EE3E38"/>
</g>
</g>
</g>
</g>
<g clip-path="url(#clip6_7_2)">
<g clip-path="url(#clip7_7_2)">
<path d="M55.5 9H50.5V7.5C50.5 7.22 50.28 7 50 7H44C43.72 7 43.5 7.22 43.5 7.5V9H38.5C38.22 9 38 9.22 38 9.5V19.5C38 19.78 38.22 20 38.5 20H55.5C55.78 20 56 19.78 56 19.5V9.5C56 9.22 55.78 9 55.5 9ZM44.5 8H49.5V9H44.5V8ZM55 19H39V12.94C39.64 13.6 40.52 14 41.5 14H45.5V14.5C45.5 14.78 45.72 15 46 15H48C48.28 15 48.5 14.78 48.5 14.5V14H52.5C53.48 14 54.36 13.6 55 12.94V19ZM46.5 14V13H47.5V14H46.5ZM55 10.5C55 11.88 53.88 13 52.5 13H48.5V12.5C48.5 12.22 48.28 12 48 12H46C45.72 12 45.5 12.22 45.5 12.5V13H41.5C40.12 13 39 11.88 39 10.5V10H55V10.5Z" fill="#EE3E38"/>
</g>
</g>
</g>
</g>
<defs>
<clipPath id="clip0_7_2">
<rect width="93.9601" height="32" fill="white"/>
</clipPath>
<clipPath id="clip1_7_2">
<rect width="93.9601" height="30.7801" fill="white"/>
</clipPath>
<clipPath id="clip2_7_2">
<rect width="93.9601" height="10.5836" fill="white" transform="translate(0 20.1966)"/>
</clipPath>
<clipPath id="clip3_7_2">
<rect width="93.9601" height="10.5836" fill="white" transform="translate(0 20.1966)"/>
</clipPath>
<clipPath id="clip4_7_2">
<rect width="93.9601" height="10.5836" fill="white" transform="translate(0 20.1966)"/>
</clipPath>
<clipPath id="clip5_7_2">
<rect width="93.9553" height="10.5836" fill="white" transform="translate(0.00238037 20.1966)"/>
</clipPath>
<clipPath id="clip6_7_2">
<rect width="18" height="13" fill="white" transform="translate(38 7)"/>
</clipPath>
<clipPath id="clip7_7_2">
<rect width="18" height="13" fill="white" transform="translate(38 7)"/>
</clipPath>
</defs>
</svg>
