<svg width="32" height="33" viewBox="0 0 32 33" fill="none" xmlns="http://www.w3.org/2000/svg">
<path fill-rule="evenodd" clip-rule="evenodd" d="M15.0087 0.849488C23.2978 0.849488 30.0172 6.25984 30.0172 12.9338C30.0172 18.496 25.3493 23.1796 18.9959 24.586V29.639C18.9959 31.4047 17.2017 32.8495 15.0087 32.8495C12.8155 32.8495 11.0213 31.4049 11.0213 29.639V24.586C4.66787 23.1796 0 18.496 0 12.9338C0 6.25984 6.71964 0.849488 15.0087 0.849488ZM15.0087 4.24033C20.9718 4.24033 25.8058 8.13246 25.8058 12.9338C25.8058 17.735 20.9718 21.6272 15.0087 21.6272C9.04543 21.6272 4.2116 17.735 4.2116 12.9338C4.2116 8.13246 9.04543 4.24033 15.0087 4.24033Z" fill="#004D40"/>
<path fill-rule="evenodd" clip-rule="evenodd" d="M15.0604 15.6108L12.3897 17.7611C11.6506 17.166 9.10944 15.113 6.48796 12.9982C6.47359 11.8061 6.84592 10.6264 7.57162 9.58124L15.0604 15.6108Z" fill="#004D40"/>
<path fill-rule="evenodd" clip-rule="evenodd" d="M28.9591 3.81755L12.0155 17.4598L14.6862 19.6101L32 5.66966C31.3983 4.75657 30.6829 3.89161 29.8637 3.08915L28.9591 3.81755Z" fill="#004D40"/>
<path fill-rule="evenodd" clip-rule="evenodd" d="M14.6862 7.06462C16.4886 7.06462 17.9498 8.24109 17.9498 9.69235C17.9498 11.1436 16.4886 12.3201 14.6862 12.3201C12.8837 12.3201 11.4226 11.1436 11.4226 9.69235C11.4226 8.24109 12.8837 7.06462 14.6862 7.06462Z" fill="#004D40"/>
</svg>
